<svg width="1200" height="720" viewBox="0 0 1200 720" xmlns="http://www.w3.org/2000/svg">
<rect width="100%" height="100%" fill="#ffffff"/>
<text x="60" y="64" font-family="Inter,Arial,sans-serif" font-size="34" font-weight="800" fill="#0f172a">Top-8 latent dims ranked by V′ (effect size)</text>
<text x="60" y="98" font-family="Inter,Arial,sans-serif" font-size="22" fill="#0f766e" font-weight="600">Rank #1: latent #8110 (V′=0.316, p=1.79e-03)</text>
<line x1="305" y1="150" x2="305" y2="656" stroke="#e2e8f0" stroke-dasharray="4 6"/>
<text x="293" y="684" font-family="Inter,Arial,sans-serif" font-size="16" fill="#64748b">0.05</text>
<line x1="390" y1="150" x2="390" y2="656" stroke="#e2e8f0" stroke-dasharray="4 6"/>
<text x="378" y="684" font-family="Inter,Arial,sans-serif" font-size="16" fill="#64748b">0.10</text>
<line x1="476" y1="150" x2="476" y2="656" stroke="#e2e8f0" stroke-dasharray="4 6"/>
<text x="464" y="684" font-family="Inter,Arial,sans-serif" font-size="16" fill="#64748b">0.15</text>
<line x1="561" y1="150" x2="561" y2="656" stroke="#e2e8f0" stroke-dasharray="4 6"/>
<text x="549" y="684" font-family="Inter,Arial,sans-serif" font-size="16" fill="#64748b">0.20</text>
<line x1="647" y1="150" x2="647" y2="656" stroke="#e2e8f0" stroke-dasharray="4 6"/>
<text x="635" y="684" font-family="Inter,Arial,sans-serif" font-size="16" fill="#64748b">0.25</text>
<line x1="732" y1="150" x2="732" y2="656" stroke="#e2e8f0" stroke-dasharray="4 6"/>
<text x="720" y="684" font-family="Inter,Arial,sans-serif" font-size="16" fill="#64748b">0.30</text>
<text x="80" y="184" font-family="Inter,Arial,sans-serif" font-size="22" font-weight="700" fill="#0f172a">#8110</text>
<rect x="220" y="160" width="540" height="36" rx="8" fill="#0f766e"/>
<text x="774" y="184" font-family="Inter,Arial,sans-serif" font-size="18" fill="#334155">V′=0.316, p=1.79e-03</text>
<text x="80" y="246" font-family="Inter,Arial,sans-serif" font-size="22" font-weight="700" fill="#0f172a">#5888</text>
<rect x="220" y="222" width="422" height="36" rx="8" fill="#14b8a6"/>
<text x="656" y="246" font-family="Inter,Arial,sans-serif" font-size="18" fill="#334155">V′=0.247, p=4.52e-11</text>
<text x="80" y="308" font-family="Inter,Arial,sans-serif" font-size="22" font-weight="700" fill="#0f172a">#7928</text>
<rect x="220" y="284" width="362" height="36" rx="8" fill="#14b8a6"/>
<text x="596" y="308" font-family="Inter,Arial,sans-serif" font-size="18" fill="#334155">V′=0.212, p=5.45e-03</text>
<text x="80" y="370" font-family="Inter,Arial,sans-serif" font-size="22" font-weight="700" fill="#0f172a">#9544</text>
<rect x="220" y="346" width="350" height="36" rx="8" fill="#14b8a6"/>
<text x="584" y="370" font-family="Inter,Arial,sans-serif" font-size="18" fill="#334155">V′=0.205, p=1.02e-02</text>
<text x="80" y="432" font-family="Inter,Arial,sans-serif" font-size="22" font-weight="700" fill="#0f172a">#13768</text>
<rect x="220" y="408" width="339" height="36" rx="8" fill="#14b8a6"/>
<text x="573" y="432" font-family="Inter,Arial,sans-serif" font-size="18" fill="#334155">V′=0.199, p=2.51e-09</text>
<text x="80" y="494" font-family="Inter,Arial,sans-serif" font-size="22" font-weight="700" fill="#0f172a">#3303</text>
<rect x="220" y="470" width="338" height="36" rx="8" fill="#14b8a6"/>
<text x="572" y="494" font-family="Inter,Arial,sans-serif" font-size="18" fill="#334155">V′=0.198, p=4.37e-07</text>
<text x="80" y="556" font-family="Inter,Arial,sans-serif" font-size="22" font-weight="700" fill="#0f172a">#3899</text>
<rect x="220" y="532" width="336" height="36" rx="8" fill="#14b8a6"/>
<text x="570" y="556" font-family="Inter,Arial,sans-serif" font-size="18" fill="#334155">V′=0.197, p=4.28e-05</text>
<text x="80" y="618" font-family="Inter,Arial,sans-serif" font-size="22" font-weight="700" fill="#0f172a">#9159</text>
<rect x="220" y="594" width="335" height="36" rx="8" fill="#14b8a6"/>
<text x="569" y="618" font-family="Inter,Arial,sans-serif" font-size="18" fill="#334155">V′=0.197, p=4.64e-09</text>
<text x="220" y="718" font-family="Inter,Arial,sans-serif" font-size="20" fill="#0f172a">V′ (effect size)</text>
</svg>